<svg height="512pt" preserveAspectRatio="xMidYMid meet" viewBox="0 0 512 512" width="512pt" xmlns="http://www.w3.org/2000/svg"><g transform="matrix(.1 0 0 -.1 0 512)"><path d="m3153 4180c-340-341-1116-1119-1725-1729-610-609-1108-1113-1108-1119s11-23 25-38 25-31 25-36 17-35 38-66 42-65 45-75c4-10 13-17 21-15s812 798 1787 1770c1523 1519 1770 1769 1759 1783-7 8-16 15-21 15s-32 18-61 40-58 40-64 40c-5 0-25 11-44 25s-40 25-46 25c-7 0-291-279-631-620z"/><path d="m3423 3543c-476-478-1281-1285-1790-1795l-924-927 15-29c8-16 25-36 38-44 13-9 46-39 75-67s60-51 69-51 389 371 843 824 1259 1256 1789 1784c529 528 962 964 962 970 0 25-171 202-195 202-9 0-406-390-882-867z"/><path d="m4690 3911c0-5-478-487-1062-1073-585-585-1194-1197-1355-1359-161-161-466-467-678-679-212-211-385-390-385-397 0-16 39-43 62-43 10 0 18-4 18-9 0-11 141-81 164-81 12 0 234 214 575 554 2878 2870 2832 2824 2825 2853-4 16-12 37-18 49-6 11-22 42-35 67-14 26-29 47-33 47s-8 9-8 20-9 29-20 40c-20 20-50 27-50 11z"/></g></svg>